<?xml version="1.0" standalone="no"?>
<!DOCTYPE svg PUBLIC "-//W3C//DTD SVG 20010904//EN"
 "http://www.w3.org/TR/2001/REC-SVG-20010904/DTD/svg10.dtd">
<svg version="1.0" xmlns="http://www.w3.org/2000/svg"
 width="400.000000pt" height="400.000000pt" viewBox="0 0 400.000000 400.000000"
 preserveAspectRatio="xMidYMid meet">
<metadata>
Created by potrace 1.11, written by Peter Selinger 2001-2013
</metadata>
<g transform="translate(0.000000,400.000000) scale(0.100000,-0.100000)"
fill="#000000" stroke="none">
<path d="M1735 3985 c-595 -87 -1091 -402 -1417 -900 -156 -237 -274 -564
-305 -843 -15 -129 -6 -542 11 -571 2 -3 7 -24 10 -45 25 -156 112 -407 197
-564 60 -111 159 -258 237 -348 55 -66 187 -200 234 -239 302 -251 606 -387
1028 -460 61 -11 422 -14 500 -4 657 80 1225 468 1539 1050 105 196 194 479
219 698 14 128 5 541 -12 570 -2 3 -7 24 -10 46 -23 149 -118 418 -201 570
-45 82 -155 251 -197 301 -85 102 -156 176 -241 252 -89 79 -106 91 -211 162
-264 176 -485 261 -846 325 -73 13 -444 13 -535 0z m982 -829 c111 -11 239
-37 310 -63 6 -3 13 6 15 19 l3 23 205 0 c113 1 212 -1 220 -3 13 -3 15 -47
14 -328 -1 -179 -4 -327 -7 -330 -5 -5 -58 -6 -346 -4 l-90 0 -3 46 c-3 42 -6
48 -43 68 -231 128 -507 156 -640 64 -39 -26 -73 -89 -73 -137 -2 -88 66 -148
229 -204 64 -22 233 -70 287 -82 96 -21 327 -91 347 -105 6 -4 30 -15 55 -24
67 -26 203 -120 248 -171 52 -60 96 -145 121 -235 31 -111 25 -303 -13 -415
-104 -304 -398 -476 -816 -476 -90 0 -132 3 -226 15 -54 8 -231 54 -255 67
-17 9 -19 6 -19 -28 l0 -38 -202 2 c-112 1 -211 2 -220 2 -17 1 -18 25 -18
354 l0 352 220 0 220 0 0 -57 0 -56 46 -27 c196 -115 469 -159 644 -103 97 31
154 108 146 201 -2 30 -9 64 -15 76 -17 31 -71 68 -142 97 -61 25 -270 90
-316 98 -124 23 -408 111 -517 161 -96 44 -185 123 -233 206 -24 43 -63 143
-69 179 -3 14 -7 31 -10 39 -7 20 -6 177 1 226 10 64 44 165 78 229 103 193
344 338 603 362 38 4 70 7 71 8 4 3 127 -3 190 -8z m-1187 -64 c2 -133 -1
-397 -5 -400 -2 -2 -55 -4 -119 -3 l-114 0 -1 -714 0 -715 27 -1 c15 -1 69 -1
120 0 l92 1 0 -220 c0 -203 -1 -220 -17 -221 -27 0 -996 -1 -1015 0 -17 1 -18
18 -18 220 l0 218 93 1 c50 0 104 1 118 1 l26 1 0 715 0 714 -106 0 c-58 -1
-112 -1 -118 0 -10 1 -13 52 -13 219 l0 219 525 1 525 1 0 -37z"/>
</g>
</svg>
