<?xml version="1.0" standalone="no"?>
<!DOCTYPE svg PUBLIC "-//W3C//DTD SVG 20010904//EN"
 "http://www.w3.org/TR/2001/REC-SVG-20010904/DTD/svg10.dtd">
<svg version="1.0" xmlns="http://www.w3.org/2000/svg"
 width="260.000000pt" height="260.000000pt" viewBox="0 0 260.000000 260.000000"
 preserveAspectRatio="xMidYMid meet">
<metadata>
Created by potrace 1.11, written by Peter Selinger 2001-2013
</metadata>
<g transform="translate(0.000000,260.000000) scale(0.100000,-0.100000)"
fill="#000000" stroke="none">
<path d="M773 2440 c-17 -6 -43 -24 -57 -41 -24 -28 -26 -38 -26 -130 0 -55 5
-110 11 -122 6 -12 47 -56 91 -97 l79 -76 -3 -74 c-3 -74 -3 -75 -32 -78 -37
-5 -46 10 -46 81 l0 57 -55 0 -55 0 1 -67 c1 -131 43 -183 146 -183 118 0 153
42 153 182 -1 122 -15 154 -114 242 l-76 68 0 64 c0 52 3 65 19 74 47 25 71
-2 71 -81 l0 -59 50 0 50 0 0 70 c0 81 -16 129 -53 152 -31 21 -112 30 -154
18z"/>
<path d="M1914 2440 c-16 -5 -41 -21 -55 -36 -24 -26 -24 -26 -29 -302 -4
-181 -2 -289 5 -312 15 -51 64 -80 134 -80 107 0 151 52 151 180 l0 70 -50 0
-50 0 0 -59 c0 -60 -15 -91 -45 -91 -7 0 -21 7 -29 16 -14 13 -16 51 -16 259
0 231 1 245 19 255 47 25 71 -2 71 -81 l0 -59 50 0 50 0 0 70 c0 81 -16 129
-53 152 -31 21 -112 30 -153 18z"/>
<path d="M497 2228 c-4 -112 -7 -272 -7 -355 l0 -153 55 0 55 0 0 355 0 355
-48 0 -49 0 -6 -202z"/>
<path d="M1135 2393 c-4 -21 -15 -85 -26 -143 -11 -58 -31 -189 -44 -290 -14
-102 -28 -197 -31 -212 -6 -28 -6 -28 49 -28 63 0 61 -2 72 93 l6 57 49 0 48
0 7 -42 c18 -118 11 -108 70 -108 l52 0 -4 53 c-8 90 -79 547 -98 635 -5 20
-11 22 -75 22 l-69 0 -6 -37z m104 -360 l8 -53 -34 0 c-38 0 -39 3 -23 108 5
37 12 85 14 107 7 65 8 64 17 -24 5 -46 13 -108 18 -138z"/>
<path d="M1505 2318 c-9 -62 -20 -129 -25 -148 -5 -19 -18 -108 -30 -198 -11
-90 -23 -183 -27 -208 l-6 -45 54 3 54 3 9 73 9 72 48 0 c54 0 54 0 65 -92 l6
-58 54 0 c52 0 54 1 53 28 0 31 -22 176 -70 474 l-34 208 -71 0 -72 0 -17
-112z m105 -188 c6 -63 13 -123 16 -132 4 -15 -1 -18 -32 -18 l-37 0 6 38 c3
20 9 62 12 92 12 108 17 142 20 138 2 -2 9 -55 15 -118z"/>
<path d="M292 880 c-44 -27 -62 -74 -62 -160 0 -87 16 -127 71 -177 23 -21 60
-55 81 -75 l39 -37 -3 -78 -3 -78 -30 -3 c-39 -5 -55 19 -55 85 l0 53 -50 0
-50 0 0 -65 c0 -123 42 -175 142 -175 70 0 112 19 133 60 18 35 21 219 4 253
-6 12 -49 58 -95 102 -83 79 -84 81 -84 128 0 60 14 87 43 87 36 0 47 -19 47
-82 l0 -58 50 0 50 0 0 75 c0 87 -16 127 -60 150 -42 22 -128 19 -168 -5z"/>
<path d="M2133 880 c-56 -33 -58 -44 -61 -300 -4 -287 0 -331 38 -373 27 -31
31 -32 108 -32 71 0 83 3 106 24 38 35 46 79 46 239 l0 142 -75 0 -75 0 0 -50
c0 -47 2 -50 25 -50 25 0 25 -1 25 -86 0 -95 -10 -124 -43 -124 -46 0 -47 5
-53 246 -7 259 -3 284 45 284 38 0 51 -23 51 -89 l0 -51 50 0 50 0 -1 63 c0
83 -17 126 -58 154 -45 30 -132 32 -178 3z"/>
<path d="M610 593 c0 -173 4 -314 10 -335 6 -20 24 -48 41 -62 26 -22 41 -26
92 -26 68 0 116 21 139 62 10 17 14 101 16 341 l3 317 -53 0 -53 0 3 -282 c4
-315 1 -338 -47 -338 -20 0 -34 7 -41 19 -6 12 -10 129 -10 310 l0 291 -50 0
-50 0 0 -297z"/>
<path d="M996 767 c0 -67 1 -227 2 -354 l2 -233 50 0 50 0 1 183 1 182 35
-145 c59 -248 46 -220 102 -220 l48 0 8 304 c4 168 4 327 0 355 l-7 51 -42 0
-43 0 -6 -67 c-4 -38 -7 -115 -8 -173 l-1 -105 -28 110 c-16 61 -31 121 -35
135 -4 14 -11 42 -16 63 -10 37 -10 37 -62 37 l-52 0 1 -123z m201 -259 c-3
-8 -6 -5 -6 6 -1 11 2 17 5 13 3 -3 4 -12 1 -19z"/>
<path d="M1356 874 c-3 -9 -6 -31 -6 -50 l0 -34 49 0 49 0 7 -305 7 -305 49 0
49 0 0 305 0 305 50 0 50 0 0 50 0 50 -149 0 c-127 0 -150 -2 -155 -16z"/>
<path d="M1767 868 c-9 -38 -97 -652 -97 -676 0 -8 18 -12 49 -12 55 0 52 -5
66 102 l6 48 54 0 53 0 9 -72 8 -73 53 -3 53 -3 -5 33 c-3 18 -13 85 -21 148
-9 63 -24 171 -35 240 -10 69 -22 152 -25 184 -12 104 -14 106 -94 106 -63 0
-69 -2 -74 -22z m98 -288 c21 -158 22 -150 -23 -150 l-39 0 18 133 c10 72 19
137 19 142 3 21 9 -13 25 -125z"/>
</g>
</svg>
